<svg width="450" height="210" xmlns="http://www.w3.org/2000/svg">
 <g>
  <title>background</title>
  <rect x="-1" y="-1" width="452" height="212" id="canvas_background" fill="none"/>
 </g>

 <g>
  <title>Layer 1</title>
  <g id="surface1">
   <path d="m348.618482,82.58594c0.04688,-0.59375 0,-1.20703 0,-1.70703c0.00782,-11.3711 0.00782,-22.74219 0,-34.11719c-0.0039,-0.58594 -0.03515,-1.19922 -0.1875,-1.76563c-3.26953,-12.32031 -9.19531,-23.0625 -19.01562,-31.36718c-8.0625,-6.81641 -17.32422,-10.6211 -27.99219,-10.61719c-28.11719,0.00391 -56.24219,0 -84.36328,0c-37.85156,0 -75.69922,0 -113.54688,0.00781c-0.69921,0 -1.39843,-0.03906 -2.15234,0c0,8.69531 0,17.28906 0,25.84375c0.53125,0.21094 0.99219,0.41797 1.46484,0.57031c3.48047,1.11329 6.96485,2.21875 10.44532,3.32422c35.0625,11.12891 70.12109,22.25782 105.18359,33.39063c16.55859,5.25781 33.11328,10.53515 49.67578,15.77734c1.04297,0.33203 2.14453,0.63672 3.22266,0.64063c25.1875,0.03125 50.3789,0.02343 75.57031,0.01953c0.49219,0 1.10547,0.04687 1.69531,0zm-97.61718,-1.63672c-22.58204,-7.17969 -44.98047,-14.29688 -67.65625,-21.5c0,33.48047 0,66.62891 0,99.83203c-9.76172,4.93359 -19.37891,9.80078 -28.92969,14.63281c0,9.91016 0,19.63672 0,29.45703c39.50781,0 78.89062,0 118.38281,0c0,-19.07812 0,-38.03906 0,-57.25c-7.28906,0 -14.47266,0 -21.79687,0c0,-21.82812 0,-43.40625 0,-65.17187zm7.66406,7.80078c0,16.77734 0,33.4375 0,50.21484c29.98437,0 59.85937,0 89.84375,0c0,-16.77734 0,-33.4375 0,-50.21484c-29.98438,0 -59.85547,0 -89.84375,0zm0,0" fill="rgb(100%,100%,100%)" fill-rule="evenodd" id="svg_1"/>
   <path d="m348.618482,82.58594l-78.52343,-0.01953l-168.73438,-53.61719c0,0 0,-17.23438 0,-25.93359c0.75391,-0.03516 77.84766,-0.00391 115.69922,-0.00391c28.12109,0 56.24609,0.00391 84.36328,0c10.66797,-0.00391 19.92969,3.80078 27.99219,10.61719c9.82031,8.30468 15.74609,19.04687 19.01562,31.36718c0.15235,0.56641 0.1836,1.17969 0.1875,1.76563c0.00782,11.375 0,35.82422 0,35.82422zm0,0" fill="rgb(100%,100%,100%)" fill-rule="evenodd" id="svg_2"/>
   <path d="m251.001302,80.94922c0,21.76562 0,43.34375 0,65.17187c7.32421,0 14.50781,0 21.79687,0c0,19.21094 0,38.17188 0,57.25c-39.49219,0 -78.875,0 -118.38281,0c0,-9.82031 0,-19.54687 0,-29.46093c9.55078,-4.82813 19.16797,-9.69532 28.92969,-14.62891c0,-33.20703 0,-66.35547 0,-99.83594c22.67578,7.20703 45.07421,14.32422 67.65625,21.50391zm0,0" fill="rgb(100%,100%,100%)" fill-rule="evenodd" id="svg_3"/>
  </g>
 </g>
</svg>