<?xml version="1.0" encoding="utf-8"?>
<svg version="1.0" preserveAspectRatio="xMidYMid meet" xmlns="http://www.w3.org/2000/svg" xmlns:bx="https://boxy-svg.com">
  <path d="M 595.027 168.966 C 594.397 168.561 591.381 165.095 588.275 161.269 C 585.17 157.398 578.643 149.297 573.737 143.175 C 568.606 136.829 564.195 131.788 563.385 131.338 C 562.08 130.618 560.369 130.528 545.966 130.528 C 531.653 130.528 529.808 130.438 528.457 129.718 C 526.297 128.637 525.217 126.972 524.902 124.181 L 524.587 121.751 L 509.959 121.526 C 496.231 121.301 495.24 121.256 493.755 120.356 C 492.9 119.86 491.73 118.78 491.19 117.925 C 490.199 116.485 490.154 116.08 490.154 106.808 C 490.154 98.076 490.244 97.041 491.055 95.42 C 492.72 92.135 492.99 92.09 509.733 91.82 C 524.227 91.594 524.587 91.549 524.587 90.694 C 524.587 89.839 524.227 89.794 509.733 89.569 C 495.916 89.344 494.79 89.299 493.35 88.444 C 490.469 86.733 490.154 85.518 490.154 75.391 C 490.154 65.264 490.469 64.049 493.35 62.338 C 494.79 61.483 495.916 61.438 509.733 61.213 C 524.227 60.988 524.587 60.943 524.587 60.088 C 524.587 59.188 524.272 59.188 506.358 59.188 L 488.129 59.188 L 487.904 92.495 L 487.679 125.802 L 486.644 127.467 C 484.843 130.348 483.493 130.573 470.8 130.438 C 459.998 130.303 459.728 130.303 458.243 129.222 C 455.407 127.197 455.497 128.727 455.497 88.984 C 455.497 50.096 455.542 51.041 453.201 51.401 L 452.121 51.536 L 451.896 88.894 L 451.671 126.252 L 450.681 127.647 C 448.61 130.573 449.106 130.528 417.104 130.528 C 389.828 130.528 388.118 130.483 386.632 129.673 C 385.777 129.222 384.652 128.322 384.157 127.647 C 383.257 126.432 383.257 125.847 383.257 100.596 C 383.257 75.076 383.257 74.761 384.202 73.501 C 384.742 72.825 385.822 71.835 386.677 71.34 C 388.118 70.485 389.243 70.44 403.961 70.215 L 419.714 69.99 L 419.714 49.961 L 419.714 29.931 L 399.37 29.796 L 378.981 29.706 L 378.891 77.732 L 378.756 125.802 L 377.72 127.422 C 375.83 130.528 375.83 130.528 350.94 130.528 C 330.73 130.528 328.66 130.438 327.265 129.718 C 324.294 128.232 323.844 127.107 323.709 120.626 C 323.484 113.829 324.204 111.399 326.86 109.958 C 328.21 109.238 334.151 108.878 345.809 108.923 C 346.529 108.923 346.574 107.438 346.574 83.943 L 346.574 58.963 L 321.728 59.053 L 296.838 59.188 L 296.703 84.078 C 296.613 107.528 296.658 108.923 297.378 108.923 C 297.828 108.968 301.339 108.968 305.165 108.968 C 313.672 108.968 315.607 109.418 317.498 111.759 L 318.893 113.514 L 318.893 119.635 C 318.893 126.702 318.398 128.142 315.427 129.673 C 313.852 130.483 312.502 130.528 291.302 130.528 C 267.447 130.528 266.637 130.483 263.981 128.367 C 263.396 127.917 259.525 123.776 255.384 119.23 C 251.243 114.684 245.212 108.023 241.972 104.467 C 238.731 100.911 235.715 97.491 235.31 96.816 C 234.095 95.015 234.275 92.99 235.805 91.279 L 237.11 89.794 L 251.018 89.569 L 264.881 89.344 L 264.881 74.266 L 264.881 59.188 L 247.103 59.188 L 229.324 59.188 L 229.099 92.495 C 228.829 130.123 229.054 127.962 225.363 129.673 C 223.698 130.393 222.302 130.528 212.805 130.528 C 200.563 130.528 199.257 130.258 197.502 127.422 L 196.467 125.802 L 196.467 81.242 C 196.467 39.473 196.512 36.593 197.277 35.242 C 198.897 32.227 199.122 32.227 217.846 31.957 L 234.725 31.732 L 234.86 30.697 L 234.995 29.706 L 195.252 29.796 C 155.868 29.931 155.508 29.931 155.508 30.832 C 155.508 31.732 155.868 31.732 172.252 31.957 C 188.275 32.182 189.04 32.227 190.256 33.127 C 190.931 33.622 191.876 34.747 192.281 35.603 C 193.046 37.043 193.091 40.149 193.091 81.332 C 193.091 130.708 193.271 127.692 189.94 129.583 C 188.365 130.483 187.6 130.528 177.518 130.528 C 167.751 130.528 166.67 130.438 164.96 129.628 C 162.89 128.637 161.584 126.477 161.584 124.091 C 161.584 123.281 161.404 122.426 161.224 122.111 C 160.954 121.706 156.993 121.526 146.191 121.436 C 132.148 121.301 131.428 121.256 130.258 120.356 C 127.197 118.105 127.152 117.925 127.017 107.123 C 126.882 97.896 126.927 97.176 127.827 95.465 C 129.493 92.135 129.763 92.09 146.506 91.82 C 160.999 91.594 161.359 91.549 161.359 90.694 C 161.359 89.794 160.999 89.794 146.191 89.569 C 131.788 89.344 130.978 89.299 129.763 88.399 C 127.197 86.508 126.927 85.293 126.927 75.391 C 126.927 65.489 127.197 64.274 129.763 62.383 C 130.978 61.483 131.788 61.438 146.191 61.213 C 160.999 60.988 161.359 60.988 161.359 60.088 C 161.359 59.188 160.999 59.188 143.04 59.053 L 124.677 58.963 L 124.677 91.234 C 124.677 113.154 124.497 124.136 124.181 125.352 C 123.911 126.342 123.236 127.647 122.741 128.232 C 120.761 130.393 119.771 130.528 105.773 130.528 C 91.549 130.528 90.694 130.393 88.084 127.917 C 87.364 127.242 82.908 120.221 78.182 112.299 C 73.501 104.377 67.514 94.34 64.904 90.019 C 57.882 78.317 57.027 76.561 57.342 74.761 C 57.567 73.186 58.557 71.835 60.088 70.98 C 60.718 70.62 66.074 70.35 76.966 70.215 L 92.945 69.99 L 92.945 49.961 L 92.945 29.931 L 72.69 29.931 L 52.436 29.931 L 52.211 77.867 C 51.986 124.631 51.986 125.847 51.086 127.287 C 50.591 128.097 49.376 129.132 48.385 129.628 C 46.63 130.483 45.55 130.528 29.796 130.528 C 8.732 130.528 10.307 130.978 3.556 122.966 C 1.575 120.671 0 118.6 0 118.42 C 0 118.195 0.315 117.295 0.675 116.395 C 1.035 115.54 1.485 113.739 1.71 112.479 L 2.025 110.183 L 7.292 116.485 C 11.657 121.706 12.873 122.921 14.268 123.326 C 15.393 123.641 20.929 123.776 30.381 123.686 L 44.785 123.551 L 45.01 75.616 C 45.235 28.401 45.235 27.636 46.135 26.106 C 46.675 25.25 47.755 24.17 48.61 23.63 C 50.141 22.775 50.861 22.73 72.735 22.73 L 95.24 22.73 L 96.906 23.855 C 97.806 24.485 98.796 25.475 99.111 26.061 C 99.561 26.916 99.696 32.227 99.696 50.141 C 99.696 71.97 99.651 73.186 98.841 74.401 C 96.996 77.101 96.591 77.191 80.432 77.416 L 65.669 77.641 L 70.35 85.518 C 87.634 114.639 92 121.841 92.765 122.651 C 93.575 123.506 94.34 123.551 104.557 123.686 C 110.544 123.776 115.9 123.686 116.44 123.551 L 117.475 123.326 L 117.565 90.109 C 117.7 57.657 117.7 56.892 118.6 55.362 C 119.14 54.507 120.221 53.426 121.076 52.886 C 122.606 52.031 123.326 51.986 142.905 51.986 C 162.35 51.986 163.205 52.031 164.69 52.886 C 167.301 54.417 168.066 55.902 168.246 59.548 C 168.336 62.248 168.201 63.058 167.346 64.589 C 165.41 67.874 165.05 67.964 148.937 67.964 C 138.494 67.964 134.624 68.099 134.219 68.505 C 133.858 68.865 133.678 71.07 133.678 75.391 C 133.678 79.712 133.858 81.917 134.219 82.277 C 134.624 82.683 138.494 82.818 148.937 82.818 C 161.584 82.818 163.34 82.908 164.69 83.628 C 167.436 84.978 168.111 86.418 168.111 90.694 C 168.111 94.925 167.481 96.23 164.69 97.896 C 163.25 98.751 162.125 98.796 148.532 99.021 L 133.904 99.246 L 133.904 106.673 L 133.904 114.099 L 148.532 114.324 C 162.125 114.549 163.25 114.594 164.69 115.45 C 166.896 116.755 167.931 118.375 168.246 121.121 L 168.561 123.551 L 177.338 123.551 L 186.115 123.551 L 186.115 81.242 L 186.115 38.933 L 169.461 38.708 C 154.518 38.528 152.627 38.393 151.547 37.673 C 149.342 36.233 148.757 34.792 148.757 30.832 C 148.757 26.241 149.342 25.07 152.357 23.63 L 154.653 22.505 L 195.837 22.595 L 236.975 22.73 L 238.596 23.765 C 240.846 25.16 241.701 27.141 241.701 30.967 C 241.701 33.442 241.521 34.387 240.666 35.603 C 238.776 38.438 238.686 38.438 220.322 38.708 L 203.668 38.933 L 203.533 81.107 L 203.443 123.326 L 204.434 123.551 C 205.019 123.686 209.115 123.731 213.57 123.686 L 221.672 123.551 L 221.897 90.244 C 222.122 54.327 222.032 55.812 224.553 53.696 C 226.713 51.851 229.144 51.671 248.723 51.851 L 267.177 51.986 L 268.797 53.066 C 271.723 55.092 271.633 54.417 271.768 73.141 C 271.858 84.078 271.768 90.829 271.453 91.82 C 271.183 92.72 270.373 94.025 269.607 94.745 L 268.212 96.095 L 256.195 96.32 L 244.177 96.546 L 248.903 101.677 C 251.514 104.512 254.709 108.068 256.06 109.553 C 257.41 111.084 260.2 114.189 262.316 116.485 C 264.386 118.735 266.457 121.121 266.907 121.661 C 268.482 123.641 270.057 123.776 291.302 123.776 C 306.83 123.776 311.466 123.641 311.781 123.191 C 312.096 122.786 312.186 118.6 311.961 116.485 C 311.916 116.35 308.001 116.125 303.275 116.035 C 293.507 115.9 292.337 115.54 290.537 112.524 C 289.637 110.994 289.637 110.273 289.637 83.943 C 289.637 57.612 289.637 56.892 290.537 55.362 C 291.077 54.507 292.157 53.426 293.012 52.886 C 294.543 51.986 295.263 51.986 321.593 51.986 C 347.924 51.986 348.644 51.986 350.175 52.886 C 351.03 53.426 352.11 54.507 352.65 55.362 C 353.55 56.892 353.55 57.612 353.55 83.943 C 353.55 110.273 353.55 110.994 352.65 112.524 C 350.85 115.54 349.679 115.855 339.597 116.125 L 330.595 116.35 L 330.595 119.95 L 330.595 123.551 L 351.075 123.551 L 371.554 123.551 L 371.779 75.616 C 372.004 28.401 372.004 27.636 372.904 26.106 C 373.444 25.25 374.525 24.17 375.38 23.63 C 376.91 22.775 377.63 22.73 399.55 22.73 C 421.65 22.73 422.145 22.73 423.36 23.675 C 424.035 24.17 425.025 25.16 425.521 25.835 C 426.421 27.051 426.466 27.636 426.601 49.33 C 426.691 70.53 426.691 71.7 425.836 73.591 C 424.26 77.146 424.215 77.146 405.986 77.416 L 390.008 77.641 L 389.873 100.101 C 389.828 116.305 389.918 122.741 390.278 123.146 C 390.998 124.001 443.749 124.091 444.605 123.236 C 445.01 122.831 445.145 114.009 445.145 86.238 C 445.145 52.391 445.19 49.646 445.955 48.205 C 447.35 45.415 448.701 44.785 453.382 44.785 C 458.153 44.785 459.638 45.325 461.213 47.665 L 462.248 49.195 L 462.248 85.743 C 462.248 114.279 462.383 122.426 462.834 123.011 C 463.329 123.731 464.274 123.776 471.925 123.686 L 480.477 123.551 L 480.702 90.244 C 480.927 57.837 480.972 56.892 481.828 55.362 C 482.368 54.507 483.538 53.381 484.528 52.886 C 486.238 52.031 487.364 51.986 505.007 51.851 C 526.162 51.671 527.602 51.806 529.718 54.237 C 530.483 55.092 531.203 56.532 531.383 57.387 C 531.878 59.998 531.338 63.824 530.348 65.174 C 528.502 67.649 528.052 67.739 512.479 67.874 C 502.982 67.964 497.896 68.189 497.491 68.505 C 496.681 69.135 496.636 81.467 497.446 82.277 C 497.851 82.683 501.722 82.818 512.074 82.818 C 527.692 82.818 528.367 82.908 530.258 85.563 C 531.833 87.814 531.968 92.225 530.573 94.97 C 528.638 98.751 528.457 98.751 511.759 99.021 L 497.131 99.246 L 497.131 106.673 L 497.131 114.099 L 511.759 114.324 C 524.542 114.504 526.567 114.639 527.962 115.36 C 529.988 116.35 531.158 118.285 531.518 121.256 L 531.788 123.551 L 548.217 123.776 L 564.645 124.001 L 567.031 125.352 C 569.056 126.432 570.631 128.097 576.483 135.479 C 580.354 140.295 586.97 148.532 591.201 153.708 C 595.477 158.929 599.168 163.61 599.438 164.15 C 600.383 165.86 600.113 167.751 598.807 168.741 C 597.367 169.866 596.557 169.911 595.027 168.966 Z" style="fill: rgb(255, 255, 255);" bx:origin="0 -0.152962"/>
  <path d="M 451.041 33.712 C 449.016 33.082 438.303 22.64 437.043 20.029 C 435.108 16.068 435.873 14.313 442.714 7.382 C 448.926 1.035 450.411 0 453.291 0 C 456.037 0 457.522 1.035 463.824 7.427 C 467.965 11.567 469.045 12.963 469.675 14.808 C 470.89 18.544 470.215 19.984 464.139 26.196 C 461.303 29.076 458.288 31.957 457.387 32.587 C 455.407 33.937 453.111 34.297 451.041 33.712 Z M 458.108 21.335 L 462.338 16.969 L 457.792 12.423 L 453.246 7.877 L 448.655 12.468 L 444.02 17.104 L 448.295 21.38 C 450.636 23.72 452.841 25.655 453.201 25.655 C 453.517 25.655 455.722 23.72 458.108 21.335 Z" style="fill: rgb(255, 255, 255);" bx:origin="-12.80598 0"/>
</svg>